<?xml version="1.0" standalone="no"?>
<!DOCTYPE svg PUBLIC "-//W3C//DTD SVG 20010904//EN"
 "http://www.w3.org/TR/2001/REC-SVG-20010904/DTD/svg10.dtd">
<svg version="1.0" xmlns="http://www.w3.org/2000/svg"
 width="1920.000000pt" height="1080.000000pt" viewBox="0 0 1920.000000 1080.000000"
 preserveAspectRatio="xMidYMid meet">
<metadata>
Created by potrace 1.15, written by Peter Selinger 2001-2017
</metadata>
<g transform="translate(0.000000,1080.000000) scale(0.100000,-0.100000)"
fill="#000000" stroke="none">
<path d="M2340 6290 l0 -740 -345 0 -345 0 0 420 0 420 -325 0 -325 0 0 -420
0 -420 -321 0 c-241 0 -320 -3 -317 -12 2 -6 146 -145 319 -309 l314 -298 700
-2 c385 -1 688 -4 673 -6 l-28 -4 0 -400 0 -399 330 0 330 0 0 1455 0 1455
-330 0 -330 0 0 -740z"/>
<path d="M8275 6419 c-261 -36 -484 -146 -671 -333 -135 -135 -212 -257 -273
-430 -44 -124 -61 -236 -61 -396 0 -341 104 -603 330 -831 172 -174 382 -282
634 -325 140 -25 419 -15 547 19 132 34 229 77 336 146 369 239 566 654 523
1102 -27 278 -125 500 -309 692 -173 181 -378 295 -615 343 -90 18 -349 26
-441 13z m304 -644 c388 -92 531 -598 250 -890 -103 -108 -226 -158 -383 -157
-232 2 -431 158 -491 383 -8 30 -15 95 -15 144 0 155 39 259 135 363 134 145
315 201 504 157z"/>
<path d="M10078 6415 c-95 -18 -190 -56 -266 -104 -64 -42 -167 -148 -195
-201 l-19 -35 37 -55 c41 -61 105 -184 135 -260 45 -115 89 -341 90 -461 l0
-46 115 -57 c64 -32 182 -86 263 -122 204 -89 274 -140 323 -235 29 -58 34
-117 14 -184 -22 -79 -104 -162 -190 -195 -82 -31 -216 -38 -309 -16 -93 22
-211 85 -282 151 -32 30 -61 55 -64 55 -3 0 -20 -29 -39 -65 -18 -36 -60 -100
-92 -144 -32 -44 -59 -82 -59 -85 0 -15 161 -131 229 -165 151 -76 263 -101
447 -101 259 0 438 66 589 215 76 76 130 167 161 270 25 83 25 259 0 340 -60
199 -165 301 -456 442 -430 208 -439 213 -493 266 -70 69 -91 115 -91 197 0
159 129 262 329 262 157 1 280 -50 398 -163 l69 -66 42 46 c105 113 176 195
176 204 0 18 -115 128 -184 176 -143 98 -277 140 -476 146 -84 3 -150 0 -202
-10z"/>
<path d="M3280 5255 l0 -1135 845 0 845 0 0 300 0 300 -520 0 -520 0 0 120 0
120 485 0 485 0 0 295 0 295 -485 0 -485 0 0 120 0 120 525 0 525 0 0 300 0
300 -850 0 -850 0 0 -1135z"/>
<path d="M5250 5255 l0 -1135 320 0 320 0 0 355 0 355 93 0 93 0 359 -675 360
-675 368 0 c202 0 367 2 367 5 0 4 -448 801 -761 1352 l-57 101 57 36 c127 78
240 230 291 391 35 108 40 338 11 460 -65 272 -254 461 -531 530 -116 30 -235
35 -757 35 l-533 0 0 -1135z m1065 526 c73 -34 115 -102 115 -186 0 -84 -42
-152 -115 -186 -34 -16 -67 -19 -232 -19 l-193 0 0 205 0 205 193 0 c165 0
198 -3 232 -19z"/>
<path d="M11270 5256 l0 -1136 180 0 180 0 0 420 0 420 244 0 c272 0 363 9
481 48 207 68 378 257 431 477 25 101 22 286 -5 388 -53 199 -191 369 -363
446 -141 64 -148 64 -670 68 l-478 4 0 -1135z m955 761 c33 -15 80 -47 103
-70 175 -169 134 -486 -77 -600 -83 -46 -161 -57 -403 -57 l-218 0 0 381 0
380 268 -3 267 -3 60 -28z"/>
<path d="M13081 5273 c-244 -614 -446 -1125 -449 -1135 -4 -17 8 -18 190 -18
l194 0 59 153 c32 83 80 209 107 280 l50 127 410 -2 411 -3 106 -277 106 -278
194 0 c193 0 193 0 188 21 -3 12 -203 523 -444 1135 l-438 1114 -120 0 -120 0
-444 -1117z m707 147 c77 -206 143 -383 147 -392 7 -17 -11 -18 -289 -18 -163
0 -296 2 -296 5 0 4 264 715 285 768 4 10 9 17 10 15 2 -2 66 -172 143 -378z"/>
<path d="M14890 5256 l0 -1136 180 0 180 0 0 445 0 445 143 0 142 0 275 -445
275 -444 218 -1 c119 0 217 3 217 6 0 4 -130 206 -290 449 -159 243 -292 449
-295 457 -4 10 9 19 47 31 82 26 176 86 248 157 75 76 121 149 158 252 23 66
26 87 26 223 1 132 -2 159 -22 220 -79 235 -235 385 -472 451 -58 16 -120 18
-547 21 l-483 4 0 -1135z m945 764 c42 -16 77 -40 116 -79 69 -69 94 -132 94
-241 0 -109 -25 -172 -94 -241 -97 -97 -194 -119 -518 -119 l-183 0 0 356 0
356 263 -4 c246 -4 266 -6 322 -28z"/>
<path d="M16780 5255 l0 -1135 180 0 180 0 0 300 0 301 146 174 c81 96 150
172 155 169 4 -2 171 -216 370 -474 l362 -470 218 0 c128 0 219 4 219 9 0 5
-207 274 -461 598 -253 323 -463 593 -465 599 -3 7 183 244 413 528 230 284
420 521 421 526 2 6 -76 10 -212 10 l-215 0 -473 -581 -473 -581 -3 581 -2
581 -180 0 -180 0 0 -1135z"/>
<path d="M1320 4860 c-146 -10 -277 -19 -292 -19 l-28 -1 0 -680 0 -680 325 0
325 0 0 700 0 700 -32 -1 c-18 -1 -152 -10 -298 -19z"/>
</g>
</svg>
