<?xml version="1.0" encoding="UTF-8" standalone="no"?>
<!-- Created with Inkscape (http://www.inkscape.org/) -->

<svg
   xmlns:dc="http://purl.org/dc/elements/1.1/"
   xmlns:cc="http://creativecommons.org/ns#"
   xmlns:rdf="http://www.w3.org/1999/02/22-rdf-syntax-ns#"
   xmlns:svg="http://www.w3.org/2000/svg"
   xmlns="http://www.w3.org/2000/svg"
   xmlns:sodipodi="http://sodipodi.sourceforge.net/DTD/sodipodi-0.dtd"
   xmlns:inkscape="http://www.inkscape.org/namespaces/inkscape"
   width="48.618mm"
   height="19.452999mm"
   viewBox="0 0 48.618 19.452999"
   version="1.1"
   id="svg2155"
   inkscape:version="0.92.4 (5da689c313, 2019-01-14)"
   sodipodi:docname="made-by.svg">
  <defs
     id="defs2149" />
  <sodipodi:namedview
     id="base"
     pagecolor="#ffffff"
     bordercolor="#666666"
     borderopacity="1.0"
     inkscape:pageopacity="0.0"
     inkscape:pageshadow="2"
     inkscape:zoom="3.959798"
     inkscape:cx="96.922833"
     inkscape:cy="57.707059"
     inkscape:document-units="mm"
     inkscape:current-layer="layer1"
     showgrid="false"
     inkscape:window-width="1366"
     inkscape:window-height="715"
     inkscape:window-x="-8"
     inkscape:window-y="-8"
     inkscape:window-maximized="1" />
  <metadata
     id="metadata2152">
    <rdf:RDF>
      <cc:Work
         rdf:about="">
        <dc:format>image/svg+xml</dc:format>
        <dc:type
           rdf:resource="http://purl.org/dc/dcmitype/StillImage" />
        <dc:title></dc:title>
      </cc:Work>
    </rdf:RDF>
  </metadata>
  <g
     inkscape:label="Layer 1"
     inkscape:groupmode="layer"
     id="layer1"
     transform="translate(0,-277.547)">
    <g
       id="g2749"
       transform="translate(-95.88743,150.53538)">
      <g
         id="g24-5-3"
         transform="matrix(0.00266429,0,0,-0.00266429,94.923056,151.58788)"
         style="fill:#000000;stroke:none">
        <path
           id="path4-2-3"
           d="m 2340,6290 v -740 h -345 -345 v 420 420 H 1325 1000 V 5970 5550 H 679 c -241,0 -320,-3 -317,-12 2,-6 146,-145 319,-309 l 314,-298 700,-2 c 385,-1 688,-4 673,-6 l -28,-4 v -400 -399 h 330 330 v 1455 1455 h -330 -330 z"
           inkscape:connector-curvature="0" />
        <path
           id="path6-69-8"
           d="m 8275,6419 c -261,-36 -484,-146 -671,-333 -135,-135 -212,-257 -273,-430 -44,-124 -61,-236 -61,-396 0,-341 104,-603 330,-831 172,-174 382,-282 634,-325 140,-25 419,-15 547,19 132,34 229,77 336,146 369,239 566,654 523,1102 -27,278 -125,500 -309,692 -173,181 -378,295 -615,343 -90,18 -349,26 -441,13 z m 304,-644 c 388,-92 531,-598 250,-890 -103,-108 -226,-158 -383,-157 -232,2 -431,158 -491,383 -8,30 -15,95 -15,144 0,155 39,259 135,363 134,145 315,201 504,157 z"
           inkscape:connector-curvature="0" />
        <path
           id="path8-9-9"
           d="m 10078,6415 c -95,-18 -190,-56 -266,-104 -64,-42 -167,-148 -195,-201 l -19,-35 37,-55 c 41,-61 105,-184 135,-260 45,-115 89,-341 90,-461 v -46 l 115,-57 c 64,-32 182,-86 263,-122 204,-89 274,-140 323,-235 29,-58 34,-117 14,-184 -22,-79 -104,-162 -190,-195 -82,-31 -216,-38 -309,-16 -93,22 -211,85 -282,151 -32,30 -61,55 -64,55 -3,0 -20,-29 -39,-65 -18,-36 -60,-100 -92,-144 -32,-44 -59,-82 -59,-85 0,-15 161,-131 229,-165 151,-76 263,-101 447,-101 259,0 438,66 589,215 76,76 130,167 161,270 25,83 25,259 0,340 -60,199 -165,301 -456,442 -430,208 -439,213 -493,266 -70,69 -91,115 -91,197 0,159 129,262 329,262 157,1 280,-50 398,-163 l 69,-66 42,46 c 105,113 176,195 176,204 0,18 -115,128 -184,176 -143,98 -277,140 -476,146 -84,3 -150,0 -202,-10 z"
           inkscape:connector-curvature="0" />
        <path
           id="path10-8-0"
           d="M 3280,5255 V 4120 h 845 845 v 300 300 h -520 -520 v 120 120 h 485 485 v 295 295 h -485 -485 v 120 120 h 525 525 v 300 300 h -850 -850 z"
           inkscape:connector-curvature="0" />
        <path
           id="path12-0-8"
           d="M 5250,5255 V 4120 h 320 320 v 355 355 h 93 93 l 359,-675 360,-675 h 368 c 202,0 367,2 367,5 0,4 -448,801 -761,1352 l -57,101 57,36 c 127,78 240,230 291,391 35,108 40,338 11,460 -65,272 -254,461 -531,530 -116,30 -235,35 -757,35 h -533 z m 1065,526 c 73,-34 115,-102 115,-186 0,-84 -42,-152 -115,-186 -34,-16 -67,-19 -232,-19 h -193 v 205 205 h 193 c 165,0 198,-3 232,-19 z"
           inkscape:connector-curvature="0" />
        <path
           id="path14-0-6"
           d="M 11270,5256 V 4120 h 180 180 v 420 420 h 244 c 272,0 363,9 481,48 207,68 378,257 431,477 25,101 22,286 -5,388 -53,199 -191,369 -363,446 -141,64 -148,64 -670,68 l -478,4 z m 955,761 c 33,-15 80,-47 103,-70 175,-169 134,-486 -77,-600 -83,-46 -161,-57 -403,-57 h -218 v 381 380 l 268,-3 267,-3 z"
           inkscape:connector-curvature="0" />
        <path
           id="path16-97-8"
           d="m 13081,5273 c -244,-614 -446,-1125 -449,-1135 -4,-17 8,-18 190,-18 h 194 l 59,153 c 32,83 80,209 107,280 l 50,127 410,-2 411,-3 106,-277 106,-278 h 194 c 193,0 193,0 188,21 -3,12 -203,523 -444,1135 l -438,1114 h -120 -120 z m 707,147 c 77,-206 143,-383 147,-392 7,-17 -11,-18 -289,-18 -163,0 -296,2 -296,5 0,4 264,715 285,768 4,10 9,17 10,15 2,-2 66,-172 143,-378 z"
           inkscape:connector-curvature="0" />
        <path
           id="path18-4-6"
           d="M 14890,5256 V 4120 h 180 180 v 445 445 h 143 142 l 275,-445 275,-444 218,-1 c 119,0 217,3 217,6 0,4 -130,206 -290,449 -159,243 -292,449 -295,457 -4,10 9,19 47,31 82,26 176,86 248,157 75,76 121,149 158,252 23,66 26,87 26,223 1,132 -2,159 -22,220 -79,235 -235,385 -472,451 -58,16 -120,18 -547,21 l -483,4 z m 945,764 c 42,-16 77,-40 116,-79 69,-69 94,-132 94,-241 0,-109 -25,-172 -94,-241 -97,-97 -194,-119 -518,-119 h -183 v 356 356 l 263,-4 c 246,-4 266,-6 322,-28 z"
           inkscape:connector-curvature="0" />
        <path
           id="path20-8-1"
           d="M 16780,5255 V 4120 h 180 180 v 300 301 l 146,174 c 81,96 150,172 155,169 4,-2 171,-216 370,-474 l 362,-470 h 218 c 128,0 219,4 219,9 0,5 -207,274 -461,598 -253,323 -463,593 -465,599 -3,7 183,244 413,528 230,284 420,521 421,526 2,6 -76,10 -212,10 h -215 l -473,-581 -473,-581 -3,581 -2,581 h -180 -180 z"
           inkscape:connector-curvature="0" />
        <path
           id="path22-8-4"
           d="m 1320,4860 c -146,-10 -277,-19 -292,-19 l -28,-1 v -680 -680 h 325 325 v 700 700 l -32,-1 c -18,-1 -152,-10 -298,-19 z"
           inkscape:connector-curvature="0" />
      </g>
      <g
         aria-label="Made by heroes outside"
         style="font-style:normal;font-weight:normal;font-size:3.52330184px;line-height:1.25;font-family:sans-serif;letter-spacing:0px;word-spacing:0px;fill:#000000;fill-opacity:1;stroke:none;stroke-width:0.08808254"
         id="text2045-1">
        <path
           d="m 99.778802,129.45818 h -0.500625 q 0,-0.29247 -0.03613,-0.98577 -0.03613,-0.69503 -0.03785,-0.86706 h -0.02581 q -0.0172,0.10322 -0.09118,0.38192 -0.07398,0.27869 -0.278699,0.82233 -0.203003,0.54191 -0.203003,0.64858 h -0.3802 q 0,-0.11011 -0.196121,-0.65546 -0.194401,-0.54536 -0.254614,-0.76384 -0.06021,-0.21849 -0.09634,-0.43353 h -0.02581 q -0.0017,0.21504 -0.04301,0.92211 -0.03957,0.70707 -0.03957,0.93072 h -0.454175 q 0,-0.0516 0.123866,-1.03394 0.125586,-0.98233 0.125586,-1.20598 h 0.66578 q 0,0.19268 0.209885,0.84986 0.211604,0.65718 0.211604,0.84126 h 0.02581 q 0,-0.1858 0.23913,-0.84298 0.240851,-0.65718 0.240851,-0.84814 h 0.660619 q 0,0.35612 0.07914,1.27135 0.08086,0.91351 0.08086,0.96857 z"
           style="font-style:normal;font-variant:normal;font-weight:bold;font-stretch:normal;font-family:Candara;-inkscape-font-specification:'Candara Bold';stroke-width:0.08808254"
           id="path2751"
           inkscape:connector-curvature="0" />
        <path
           d="m 101.5783,129.45646 -0.406,0.0138 q -0.0275,-0.0723 -0.0275,-0.13075 h -0.0224 q -0.18924,0.16171 -0.51095,0.16171 -0.21505,0 -0.35784,-0.1187 -0.14107,-0.12043 -0.14107,-0.31827 0,-0.26149 0.22021,-0.42837 0.22193,-0.16687 0.77588,-0.17719 0.003,-0.031 0.003,-0.0585 0,-0.1858 -0.0895,-0.24429 -0.0894,-0.0602 -0.32858,-0.0602 -0.25978,0 -0.50751,0.0688 l 0.0378,-0.31654 q 0.23397,-0.0809 0.66062,-0.0809 0.31138,0 0.47998,0.13075 0.17031,0.13074 0.17031,0.45761 0,0.0723 -0.007,0.26322 -0.005,0.19096 -0.005,0.25461 0,0.35612 0.055,0.58321 z m -0.45934,-0.35784 q -0.0103,-0.23225 -0.0103,-0.40084 -0.58664,0 -0.58664,0.29762 0,0.20472 0.25805,0.20472 0.20301,0 0.33891,-0.1015 z"
           style="font-style:normal;font-variant:normal;font-weight:bold;font-stretch:normal;font-family:Candara;-inkscape-font-specification:'Candara Bold';stroke-width:0.08808254"
           id="path2753"
           inkscape:connector-curvature="0" />
        <path
           d="m 103.4879,129.45646 -0.40772,0.0138 q -0.0121,-0.0602 -0.0121,-0.12559 h -0.0258 q -0.18924,0.16344 -0.48342,0.16344 -0.33031,0 -0.52471,-0.23913 -0.1944,-0.23913 -0.1944,-0.56772 0,-0.37676 0.2116,-0.65546 0.21161,-0.28042 0.58836,-0.28042 0.2443,0 0.36644,0.0912 h 0.0241 q 0,-0.40601 -0.0396,-0.81717 l 0.48686,-0.0138 q -0.0275,0.40085 -0.0275,1.15265 0,0.76212 0.0378,1.27823 z m -0.43181,-0.39053 q 0,-0.54879 -0.0258,-0.90835 -0.11871,-0.0826 -0.28386,-0.0826 -0.22709,0 -0.33719,0.1686 -0.11011,0.1686 -0.11011,0.41289 0,0.21676 0.10667,0.37504 0.10666,0.15655 0.2959,0.15655 0.25289,0 0.35439,-0.12215 z"
           style="font-style:normal;font-variant:normal;font-weight:bold;font-stretch:normal;font-family:Candara;-inkscape-font-specification:'Candara Bold';stroke-width:0.08808254"
           id="path2755"
           inkscape:connector-curvature="0" />
        <path
           d="m 105.34762,128.46553 q 0,0.0877 -0.0103,0.2288 l -1.10791,0.0189 q 0.0241,0.1944 0.16687,0.32343 0.14279,0.12902 0.37504,0.12902 0.25806,0 0.5488,-0.0774 l -0.0344,0.33375 q -0.23741,0.086 -0.58836,0.086 -0.44386,0 -0.68127,-0.24946 -0.23568,-0.24945 -0.23568,-0.6004 0,-0.36644 0.22364,-0.63482 0.22537,-0.27009 0.62449,-0.27009 0.36472,0 0.54192,0.19784 0.1772,0.19784 0.1772,0.51439 z m -0.40257,-0.0155 q 0,-0.39568 -0.33719,-0.39568 -0.32171,0 -0.38192,0.40945 z"
           style="font-style:normal;font-variant:normal;font-weight:bold;font-stretch:normal;font-family:Candara;-inkscape-font-specification:'Candara Bold';stroke-width:0.08808254"
           id="path2757"
           inkscape:connector-curvature="0" />
        <path
           d="m 108.06407,128.57047 q 0,0.37332 -0.21333,0.65546 -0.21332,0.28214 -0.58664,0.28214 -0.27526,0 -0.3888,-0.11699 h -0.0224 l -0.0344,0.0671 h -0.40428 q 0.0224,-0.60385 0.0224,-1.27823 0,-0.63482 -0.0568,-1.1406 l 0.49375,-0.0275 q -0.0172,0.40084 -0.0172,0.90663 h 0.0207 q 0.17375,-0.15311 0.46966,-0.15311 0.33031,0 0.52299,0.23913 0.1944,0.23741 0.1944,0.566 z m -0.45762,0.0447 q 0,-0.21505 -0.1101,-0.3716 -0.10839,-0.15827 -0.29935,-0.15827 -0.23741,0 -0.34751,0.13935 0,0.58836 0.0258,0.88598 0.10838,0.0843 0.28042,0.0843 0.2288,0 0.33891,-0.1686 0.11182,-0.17031 0.11182,-0.41116 z"
           style="font-style:normal;font-variant:normal;font-weight:bold;font-stretch:normal;font-family:Candara;-inkscape-font-specification:'Candara Bold';stroke-width:0.08808254"
           id="path2759"
           inkscape:connector-curvature="0" />
        <path
           d="m 109.84808,127.82383 q 0,0.11183 -0.24601,0.70879 -0.28042,0.68643 -0.34579,0.93588 -0.11183,0.43009 -0.30107,0.59352 -0.18235,0.15828 -0.54707,0.15828 l -0.0344,-0.33203 q 0.21333,0 0.35096,-0.12215 0.13762,-0.12042 0.13762,-0.32343 0,-0.20472 -0.30966,-0.89459 -0.30967,-0.69158 -0.30967,-0.72427 h 0.5316 q 0,0.0602 0.15655,0.5832 0.15655,0.52299 0.15655,0.63998 h 0.0241 q 0,-0.0998 0.14107,-0.58836 0.14279,-0.49031 0.14279,-0.63482 z"
           style="font-style:normal;font-variant:normal;font-weight:bold;font-stretch:normal;font-family:Candara;-inkscape-font-specification:'Candara Bold';stroke-width:0.08808254"
           id="path2761"
           inkscape:connector-curvature="0" />
        <path
           d="m 112.42002,129.45818 h -0.45761 q 0.0378,-0.43526 0.0378,-0.84642 0,-0.30623 -0.0774,-0.40085 -0.0774,-0.0963 -0.25461,-0.0963 -0.18752,0 -0.36816,0.12559 0,0.73115 0.0172,1.21802 h -0.45761 q 0.0189,-0.53332 0.0189,-1.27823 0,-0.68643 -0.0533,-1.1406 l 0.48686,-0.0275 q -0.0258,0.55396 -0.0258,0.9634 h 0.0224 q 0.22709,-0.20816 0.51955,-0.20816 0.27698,0 0.43353,0.12559 0.15827,0.12558 0.15827,0.44213 0,0.0327 -0.005,0.13419 -0.003,0.0998 -0.003,0.13247 0,0.2873 0.009,0.85674 z"
           style="font-style:normal;font-variant:normal;font-weight:bold;font-stretch:normal;font-family:Candara;-inkscape-font-specification:'Candara Bold';stroke-width:0.08808254"
           id="path2763"
           inkscape:connector-curvature="0" />
        <path
           d="m 114.30038,128.46553 q 0,0.0877 -0.0103,0.2288 l -1.10791,0.0189 q 0.0241,0.1944 0.16687,0.32343 0.14279,0.12902 0.37504,0.12902 0.25805,0 0.54879,-0.0774 l -0.0344,0.33375 q -0.23741,0.086 -0.58837,0.086 -0.44385,0 -0.68126,-0.24946 -0.23569,-0.24945 -0.23569,-0.6004 0,-0.36644 0.22365,-0.63482 0.22537,-0.27009 0.62449,-0.27009 0.36472,0 0.54191,0.19784 0.1772,0.19784 0.1772,0.51439 z m -0.40256,-0.0155 q 0,-0.39568 -0.3372,-0.39568 -0.3217,0 -0.38192,0.40945 z"
           style="font-style:normal;font-variant:normal;font-weight:bold;font-stretch:normal;font-family:Candara;-inkscape-font-specification:'Candara Bold';stroke-width:0.08808254"
           id="path2765"
           inkscape:connector-curvature="0" />
        <path
           d="m 115.74376,127.82383 -0.0998,0.40257 q -0.1273,-0.0516 -0.25805,-0.0516 -0.2529,0 -0.33375,0.22708 0,0.68643 0.0103,1.05631 h -0.45762 q 0.0293,-0.51783 0.0293,-0.84642 0,-0.40945 -0.086,-0.77589 l 0.43869,-0.0482 q 0.0293,0.18924 0.0293,0.22193 h 0.0275 q 0.15827,-0.24257 0.42148,-0.24257 0.12387,0 0.2787,0.0568 z"
           style="font-style:normal;font-variant:normal;font-weight:bold;font-stretch:normal;font-family:Candara;-inkscape-font-specification:'Candara Bold';stroke-width:0.08808254"
           id="path2767"
           inkscape:connector-curvature="0" />
        <path
           d="m 117.6224,128.60316 q 0,0.43353 -0.26666,0.67782 -0.26665,0.24429 -0.62793,0.24429 -0.34407,0 -0.59008,-0.22193 -0.24601,-0.22364 -0.24601,-0.62793 0,-0.43525 0.26837,-0.68126 0.26838,-0.24601 0.62965,-0.24601 0.34236,0 0.58665,0.22536 0.24601,0.22365 0.24601,0.62966 z m -0.44901,0.0516 q 0,-0.24946 -0.11699,-0.41805 -0.11698,-0.17032 -0.3045,-0.17032 -0.18236,0 -0.29763,0.15828 -0.11354,0.15827 -0.11354,0.39568 0,0.24945 0.11698,0.41977 0.11699,0.16859 0.30451,0.16859 0.18236,0 0.2959,-0.15827 0.11527,-0.15827 0.11527,-0.39568 z"
           style="font-style:normal;font-variant:normal;font-weight:bold;font-stretch:normal;font-family:Candara;-inkscape-font-specification:'Candara Bold';stroke-width:0.08808254"
           id="path2769"
           inkscape:connector-curvature="0" />
        <path
           d="m 119.42706,128.46553 q 0,0.0877 -0.0103,0.2288 l -1.10792,0.0189 q 0.0241,0.1944 0.16688,0.32343 0.14279,0.12902 0.37504,0.12902 0.25805,0 0.54879,-0.0774 l -0.0344,0.33375 q -0.23741,0.086 -0.58837,0.086 -0.44385,0 -0.68126,-0.24946 -0.23569,-0.24945 -0.23569,-0.6004 0,-0.36644 0.22365,-0.63482 0.22536,-0.27009 0.62449,-0.27009 0.36471,0 0.54191,0.19784 0.1772,0.19784 0.1772,0.51439 z m -0.40257,-0.0155 q 0,-0.39568 -0.33719,-0.39568 -0.3217,0 -0.38192,0.40945 z"
           style="font-style:normal;font-variant:normal;font-weight:bold;font-stretch:normal;font-family:Candara;-inkscape-font-specification:'Candara Bold';stroke-width:0.08808254"
           id="path2771"
           inkscape:connector-curvature="0" />
        <path
           d="m 120.90485,128.98852 q 0,0.51611 -0.76384,0.51611 -0.2787,0 -0.48686,-0.0602 l 0.0585,-0.33891 q 0.21505,0.0774 0.42837,0.0774 0.20644,0 0.28558,-0.0344 0.0809,-0.0344 0.0809,-0.11526 0,-0.12559 -0.28902,-0.23913 -0.2529,-0.0998 -0.36816,-0.19613 -0.15827,-0.13418 -0.15827,-0.32858 0,-0.22881 0.17031,-0.36816 0.17032,-0.13935 0.49547,-0.13935 0.3045,0 0.47826,0.0533 l -0.0585,0.34063 q -0.1944,-0.0757 -0.41976,-0.0757 -0.27526,0 -0.27526,0.14107 0,0.0722 0.0585,0.11698 0.0585,0.043 0.23913,0.1101 0.24945,0.0912 0.363,0.18752 0.16171,0.13763 0.16171,0.35268 z"
           style="font-style:normal;font-variant:normal;font-weight:bold;font-stretch:normal;font-family:Candara;-inkscape-font-specification:'Candara Bold';stroke-width:0.08808254"
           id="path2773"
           inkscape:connector-curvature="0" />
        <path
           d="m 123.63679,128.60316 q 0,0.43353 -0.26666,0.67782 -0.26666,0.24429 -0.62793,0.24429 -0.34407,0 -0.59009,-0.22193 -0.24601,-0.22364 -0.24601,-0.62793 0,-0.43525 0.26838,-0.68126 0.26838,-0.24601 0.62965,-0.24601 0.34235,0 0.58664,0.22536 0.24602,0.22365 0.24602,0.62966 z m -0.44902,0.0516 q 0,-0.24946 -0.11698,-0.41805 -0.11699,-0.17032 -0.30451,-0.17032 -0.18235,0 -0.29762,0.15828 -0.11354,0.15827 -0.11354,0.39568 0,0.24945 0.11698,0.41977 0.11699,0.16859 0.30451,0.16859 0.18235,0 0.2959,-0.15827 0.11526,-0.15827 0.11526,-0.39568 z"
           style="font-style:normal;font-variant:normal;font-weight:bold;font-stretch:normal;font-family:Candara;-inkscape-font-specification:'Candara Bold';stroke-width:0.08808254"
           id="path2775"
           inkscape:connector-curvature="0" />
        <path
           d="m 125.48446,129.45646 -0.40257,0.0138 q -0.0275,-0.0929 -0.0275,-0.14795 h -0.0275 q -0.22537,0.1858 -0.52643,0.1858 -0.28386,0 -0.42837,-0.14795 -0.14279,-0.14968 -0.14279,-0.59525 0,-0.0533 0.002,-0.14967 0.003,-0.0963 0.003,-0.1686 0,-0.19096 -0.0327,-0.60901 l 0.47998,-0.0172 q -0.0275,0.33031 -0.0275,0.62621 0,0.42149 0.0619,0.56772 0.0636,0.14623 0.24773,0.14623 0.20128,0 0.34752,-0.0963 0,-0.90491 -0.0206,-1.22834 l 0.4645,-0.0155 q -0.0172,0.32515 -0.0172,0.84298 0,0.38364 0.0464,0.79309 z"
           style="font-style:normal;font-variant:normal;font-weight:bold;font-stretch:normal;font-family:Candara;-inkscape-font-specification:'Candara Bold';stroke-width:0.08808254"
           id="path2777"
           inkscape:connector-curvature="0" />
        <path
           d="m 126.87279,129.13647 -0.0292,0.30622 q -0.12042,0.0516 -0.30278,0.0516 -0.2787,0 -0.41977,-0.15139 -0.14107,-0.15139 -0.14107,-0.5832 0,-0.25978 0.003,-0.58837 -0.0877,0 -0.23741,0.0103 l 0.012,-0.33891 q 0.13247,0.0103 0.24601,0.0103 0.002,-0.0912 0.0138,-0.47998 l 0.40772,-0.0499 q -0.0258,0.34235 -0.0258,0.52987 0.14451,0 0.43181,-0.0138 l -0.0138,0.34236 q -0.2615,-0.0103 -0.42493,-0.0103 -0.003,0.22881 -0.003,0.47999 0,0.30622 0.0619,0.41116 0.0619,0.10322 0.21848,0.10322 0.0946,0 0.20301,-0.0292 z m -0.64858,-1.31264 z"
           style="font-style:normal;font-variant:normal;font-weight:bold;font-stretch:normal;font-family:Candara;-inkscape-font-specification:'Candara Bold';stroke-width:0.08808254"
           id="path2779"
           inkscape:connector-curvature="0" />
        <path
           d="m 128.30241,128.98852 q 0,0.51611 -0.76384,0.51611 -0.2787,0 -0.48686,-0.0602 l 0.0585,-0.33891 q 0.21504,0.0774 0.42837,0.0774 0.20644,0 0.28558,-0.0344 0.0809,-0.0344 0.0809,-0.11526 0,-0.12559 -0.28903,-0.23913 -0.25289,-0.0998 -0.36815,-0.19613 -0.15828,-0.13418 -0.15828,-0.32858 0,-0.22881 0.17032,-0.36816 0.17032,-0.13935 0.49546,-0.13935 0.30451,0 0.47826,0.0533 l -0.0585,0.34063 q -0.1944,-0.0757 -0.41977,-0.0757 -0.27525,0 -0.27525,0.14107 0,0.0722 0.0585,0.11698 0.0585,0.043 0.23913,0.1101 0.24945,0.0912 0.363,0.18752 0.16171,0.13763 0.16171,0.35268 z"
           style="font-style:normal;font-variant:normal;font-weight:bold;font-stretch:normal;font-family:Candara;-inkscape-font-specification:'Candara Bold';stroke-width:0.08808254"
           id="path2781"
           inkscape:connector-curvature="0" />
        <path
           d="m 129.10066,129.45818 h -0.46278 q 0.0241,-0.35612 0.0241,-0.81718 0,-0.45761 -0.0585,-0.80169 l 0.49547,-0.0499 q -0.0224,0.33375 -0.0224,0.85158 0,0.44214 0.0241,0.81718 z m 0.0791,-2.1539 q 0,0.11699 -0.0808,0.20473 -0.0791,0.0877 -0.22193,0.0877 -0.12043,0 -0.18924,-0.0757 -0.0671,-0.0757 -0.0671,-0.18236 0,-0.11699 0.0791,-0.203 0.0809,-0.086 0.22537,-0.086 0.12215,0 0.18752,0.0757 0.0671,0.074 0.0671,0.17892 z"
           style="font-style:normal;font-variant:normal;font-weight:bold;font-stretch:normal;font-family:Candara;-inkscape-font-specification:'Candara Bold';stroke-width:0.08808254"
           id="path2783"
           inkscape:connector-curvature="0" />
        <path
           d="m 131.06875,129.45646 -0.40773,0.0138 q -0.012,-0.0602 -0.012,-0.12559 h -0.0258 q -0.18924,0.16344 -0.48343,0.16344 -0.33031,0 -0.52471,-0.23913 -0.1944,-0.23913 -0.1944,-0.56772 0,-0.37676 0.21161,-0.65546 0.2116,-0.28042 0.58836,-0.28042 0.24429,0 0.36644,0.0912 h 0.0241 q 0,-0.40601 -0.0396,-0.81717 l 0.48687,-0.0138 q -0.0275,0.40085 -0.0275,1.15265 0,0.76212 0.0378,1.27823 z m -0.43181,-0.39053 q 0,-0.54879 -0.0258,-0.90835 -0.1187,-0.0826 -0.28386,-0.0826 -0.22708,0 -0.33719,0.1686 -0.1101,0.1686 -0.1101,0.41289 0,0.21676 0.10666,0.37504 0.10666,0.15655 0.2959,0.15655 0.2529,0 0.3544,-0.12215 z"
           style="font-style:normal;font-variant:normal;font-weight:bold;font-stretch:normal;font-family:Candara;-inkscape-font-specification:'Candara Bold';stroke-width:0.08808254"
           id="path2785"
           inkscape:connector-curvature="0" />
        <path
           d="m 132.92846,128.46553 q 0,0.0877 -0.0103,0.2288 l -1.10791,0.0189 q 0.0241,0.1944 0.16687,0.32343 0.14279,0.12902 0.37504,0.12902 0.25806,0 0.5488,-0.0774 l -0.0344,0.33375 q -0.23741,0.086 -0.58836,0.086 -0.44386,0 -0.68127,-0.24946 -0.23569,-0.24945 -0.23569,-0.6004 0,-0.36644 0.22365,-0.63482 0.22537,-0.27009 0.62449,-0.27009 0.36472,0 0.54192,0.19784 0.17719,0.19784 0.17719,0.51439 z m -0.40256,-0.0155 q 0,-0.39568 -0.33719,-0.39568 -0.32171,0 -0.38192,0.40945 z"
           style="font-style:normal;font-variant:normal;font-weight:bold;font-stretch:normal;font-family:Candara;-inkscape-font-specification:'Candara Bold';stroke-width:0.08808254"
           id="path2787"
           inkscape:connector-curvature="0" />
      </g>
      <g
         aria-label="2019"
         style="font-style:normal;font-weight:normal;font-size:3.52330184px;line-height:1.25;font-family:sans-serif;letter-spacing:0px;word-spacing:0px;fill:#000000;fill-opacity:1;stroke:none;stroke-width:0.08808254"
         id="text2045-6-8">
        <path
           d="m 139.56295,145.39776 -0.0361,0.36815 h -1.3092 l 0.0361,-0.34579 q 0.72599,-0.40428 0.72599,-0.81201 0,-0.33891 -0.46966,-0.33891 -0.12559,0 -0.26666,0.0241 l 0.0327,-0.31998 q 0.14967,-0.0378 0.42493,-0.0378 0.35096,0 0.53503,0.14967 0.18408,0.14967 0.18408,0.40773 0,0.32342 -0.24085,0.55567 -0.23913,0.23225 -0.5075,0.35268 v 0.0224 q 0.3802,0 0.89114,-0.0258 z"
           style="font-style:normal;font-variant:normal;font-weight:bold;font-stretch:normal;font-family:Candara;-inkscape-font-specification:'Candara Bold';stroke-width:0.08808254"
           id="path2790"
           inkscape:connector-curvature="0" />
        <path
           d="m 141.46567,144.85584 q 0,0.49203 -0.20644,0.73632 -0.20644,0.24257 -0.59869,0.24257 -0.3802,0 -0.5746,-0.21333 -0.19268,-0.21504 -0.19268,-0.68126 0,-0.47998 0.20817,-0.75352 0.20988,-0.27354 0.60212,-0.27354 0.37676,0 0.56944,0.2443 0.19268,0.24257 0.19268,0.69846 z m -0.42493,0.10839 q 0,-0.31483 -0.0877,-0.51783 -0.0877,-0.20301 -0.28903,-0.20301 -0.34063,0 -0.34063,0.58149 0,0.34579 0.0877,0.51266 0.0895,0.16516 0.2873,0.16516 0.34235,0 0.34235,-0.53847 z"
           style="font-style:normal;font-variant:normal;font-weight:bold;font-stretch:normal;font-family:Candara;-inkscape-font-specification:'Candara Bold';stroke-width:0.08808254"
           id="path2792"
           inkscape:connector-curvature="0" />
        <path
           d="m 142.52714,145.76591 h -0.45934 q 0.0189,-0.44385 0.0189,-0.71567 0,-0.27697 -0.012,-0.5918 l -0.27526,0.12042 -0.0895,-0.16515 0.60385,-0.4645 h 0.21333 q -0.0189,0.70879 -0.0189,1.10103 0,0.26322 0.0189,0.71567 z"
           style="font-style:normal;font-variant:normal;font-weight:bold;font-stretch:normal;font-family:Candara;-inkscape-font-specification:'Candara Bold';stroke-width:0.08808254"
           id="path2794"
           inkscape:connector-curvature="0" />
        <path
           d="m 144.50555,144.91262 q 0,0.71739 -0.32687,1.11823 -0.33375,0.40601 -0.96168,0.43353 l -0.0482,-0.28386 q 0.43697,-0.0258 0.67094,-0.31826 0.19784,-0.24774 0.22881,-0.64342 h -0.0172 q -0.15656,0.18236 -0.44214,0.18236 -0.30966,0 -0.4903,-0.21333 -0.16343,-0.1944 -0.16343,-0.47826 0,-0.31138 0.19096,-0.52987 0.21504,-0.24429 0.57804,-0.24429 0.31999,0 0.53503,0.23053 0.24601,0.26321 0.24601,0.74664 z m -0.42321,0.0533 q 0,-0.36988 -0.12214,-0.56084 -0.1015,-0.16 -0.26494,-0.16 -0.15655,0 -0.24945,0.12903 -0.086,0.11871 -0.086,0.28902 0,0.1858 0.0998,0.31655 0.11355,0.14623 0.30451,0.14623 0.20128,0 0.31826,-0.15999 z"
           style="font-style:normal;font-variant:normal;font-weight:bold;font-stretch:normal;font-family:Candara;-inkscape-font-specification:'Candara Bold';stroke-width:0.08808254"
           id="path2796"
           inkscape:connector-curvature="0" />
      </g>
    </g>
  </g>
</svg>
