<?xml version="1.0" standalone="no"?>
<!DOCTYPE svg PUBLIC "-//W3C//DTD SVG 20010904//EN"
 "http://www.w3.org/TR/2001/REC-SVG-20010904/DTD/svg10.dtd">
<svg version="1.0" xmlns="http://www.w3.org/2000/svg"
 width="1397.000000pt" height="889.000000pt" viewBox="0 0 1397.000000 889.000000"
 preserveAspectRatio="xMidYMid meet">
<metadata>
Created by potrace 1.15, written by Peter Selinger 2001-2017
</metadata>
<g transform="translate(0.000000,889.000000) scale(0.100000,-0.100000)"
fill="#000000" stroke="none">
<path d="M7917 8875 c-22 -7 -49 -22 -60 -33 -1457 -1323 -2237 -2040 -2262
-2079 -26 -40 -30 -56 -30 -117 0 -102 22 -133 215 -306 89 -79 158 -146 153
-147 -4 -1 -48 -9 -96 -16 -87 -13 -89 -13 -102 7 -7 12 -119 224 -250 471
-131 248 -247 461 -259 473 -95 105 -266 41 -266 -99 0 -43 64 -873 73 -959
l4 -35 -434 -83 c-326 -62 -447 -89 -484 -107 -49 -25 -51 -25 -285 -23 l-237
3 -368 635 c-203 349 -381 650 -395 669 -40 50 -123 85 -188 78 -28 -3 -64
-11 -79 -18 -16 -7 -585 -521 -1265 -1141 -1004 -915 -1243 -1137 -1267 -1180
-24 -43 -29 -63 -29 -117 0 -120 -11 -108 635 -692 318 -288 579 -526 579
-529 0 -3 -93 -54 -207 -114 -273 -143 -308 -170 -283 -216 20 -37 67 -40 480
-27 l395 13 755 -684 c415 -377 772 -696 792 -709 71 -48 165 -75 273 -80
l100 -5 257 75 257 74 6 -39 c4 -21 3 -44 -3 -51 -5 -7 -177 -218 -382 -471
-205 -252 -383 -474 -396 -494 -33 -47 -33 -126 -1 -172 28 -42 81 -70 132
-70 50 0 41 -5 508 298 l357 233 55 -44 c30 -25 73 -54 97 -66 52 -25 1574
-386 1671 -396 l68 -7 327 -266 c180 -146 343 -276 364 -289 49 -33 92 -29 96
10 4 32 -25 87 -211 407 -102 173 -123 216 -111 223 8 5 222 78 475 162 254
85 481 166 505 180 78 46 134 148 134 245 0 36 -39 176 -141 502 -78 249 -141
462 -141 473 0 11 28 117 61 235 52 180 63 232 68 322 3 60 7 108 8 108 24 0
768 226 791 241 75 46 114 119 114 213 -1 53 -10 82 -74 230 l-72 170 109 72
c103 67 111 71 146 63 20 -5 70 -9 112 -9 64 0 109 10 298 65 122 36 227 63
232 60 5 -4 9 -20 9 -36 0 -25 -63 -108 -346 -456 -190 -234 -357 -441 -370
-461 -63 -93 8 -222 122 -222 46 0 40 -4 496 293 158 103 290 187 294 187 3 0
21 -13 40 -29 80 -71 93 -75 841 -252 395 -94 745 -173 779 -176 l62 -6 288
-234 c159 -129 308 -248 332 -264 54 -38 96 -37 100 3 4 33 1 38 -164 324 -74
127 -134 235 -134 240 0 5 194 74 430 152 469 156 503 172 555 256 24 40 30
62 33 120 3 67 -4 94 -127 489 l-131 418 55 192 c50 172 78 325 72 392 -2 15
52 34 353 122 394 115 405 120 453 214 42 79 35 127 -46 314 l-64 150 31 21
c17 11 185 121 373 243 188 122 354 236 368 252 48 58 27 107 -55 129 -19 5
-258 26 -532 46 l-496 38 -193 450 c-106 248 -205 476 -220 506 -28 57 -91
124 -145 157 l-31 18 395 485 c217 267 403 499 413 515 24 38 24 101 0 145
-24 46 -93 83 -142 77 -21 -3 -371 -181 -868 -442 -841 -442 -850 -446 -851
-398 0 6 -8 14 -18 17 -19 6 -185 -13 -323 -37 l-76 -14 -228 431 c-150 284
-239 442 -261 464 -29 28 -41 32 -86 32 -67 0 -114 -27 -135 -78 -14 -34 -13
-69 21 -495 20 -252 34 -462 31 -466 -2 -5 -26 -12 -52 -16 -158 -23 -758
-146 -777 -159 -18 -12 -73 -16 -247 -21 l-224 -7 -340 588 c-188 324 -356
604 -375 624 -55 56 -136 73 -213 45z m136 -39 c18 -7 41 -23 52 -35 11 -13
171 -282 355 -599 l336 -577 -76 -6 c-79 -5 -120 -22 -157 -61 -31 -33 -53
-90 -53 -137 0 -21 29 -173 65 -337 35 -164 64 -299 62 -300 -7 -6 -427 32
-427 39 0 5 9 20 20 34 43 55 45 140 4 197 -29 40 -97 69 -147 63 -27 -3 -125
-49 -276 -129 l-234 -123 -281 22 c-437 34 -456 32 -503 -57 -47 -88 -25 -153
82 -238 l72 -58 -361 -190 -361 -190 -15 30 c-14 28 -20 31 -65 31 -28 0 -73
-3 -101 -7 l-50 -7 -181 164 c-189 171 -213 203 -213 280 0 83 12 96 413 462
210 192 719 656 1132 1032 412 376 763 690 780 697 39 17 88 17 128 0z m2238
-40 c17 -18 457 -836 462 -860 2 -10 -550 -112 -558 -104 -3 3 -22 211 -42
462 l-37 456 21 28 c37 51 114 60 154 18z m2709 -41 c59 -30 77 -107 38 -162
-13 -18 -198 -248 -413 -511 l-389 -479 -45 14 c-34 10 -140 13 -455 13 l-411
0 -38 126 c-22 69 -35 129 -30 133 6 6 750 398 1576 830 105 55 123 59 167 36z
m-1807 -827 c4 -12 5 -23 4 -23 -1 -1 -68 -36 -149 -78 l-147 -77 -40 73 -40
72 39 8 c53 11 280 45 306 46 14 1 24 -7 27 -21z m-373 -115 c49 -89 55 -78
-70 -143 l-78 -40 -230 0 c-127 0 -233 3 -235 8 -3 4 -7 39 -8 77 l-4 70 280
52 c154 28 285 52 292 52 6 1 30 -34 53 -76z m427 -64 c18 -57 33 -107 33
-111 0 -5 -71 -8 -157 -8 l-158 0 -23 41 c-13 22 -22 42 -20 43 19 16 275 145
283 143 5 -2 24 -50 42 -108z m-1085 -51 l4 -68 -381 1 c-209 1 -371 4 -360 6
81 21 721 139 726 134 4 -3 9 -36 11 -73z m-1142 -460 c113 -193 206 -355 208
-359 2 -4 -48 -34 -111 -66 l-115 -60 -157 13 c-87 7 -159 15 -161 17 -9 9
-134 607 -134 643 0 67 59 137 131 154 19 4 57 8 84 9 l51 1 204 -352z m200
311 c-41 -80 -38 -112 35 -364 37 -126 70 -237 72 -246 3 -11 -6 -20 -27 -29
-17 -7 -33 -11 -35 -9 -7 7 -386 661 -392 676 -4 11 29 13 181 13 l186 0 -20
-41z m955 -36 c3 -43 8 -91 10 -108 l4 -30 -400 -210 c-221 -115 -406 -211
-413 -213 -12 -3 -146 445 -146 491 0 36 25 95 52 124 l21 23 433 0 432 0 7
-77z m240 -18 c-99 -52 -183 -95 -187 -95 -5 0 -8 15 -8 34 0 18 -3 61 -6 95
l-7 61 194 0 194 -1 -180 -94z m641 -125 l114 -215 -28 -7 c-33 -9 -882 -92
-887 -87 -9 10 -26 282 -18 290 5 5 106 61 224 123 l214 114 133 -1 134 -2
114 -215z m306 13 l65 -208 -101 -11 c-56 -6 -104 -9 -107 -8 -7 4 -229 421
-229 429 0 3 69 5 153 5 l154 0 65 -207z m807 201 c18 -4 31 -12 29 -19 -2 -7
-100 -132 -218 -277 l-215 -265 -52 49 c-54 50 -141 98 -180 98 -61 0 -66 7
-127 206 -33 104 -61 195 -63 202 -4 9 79 12 395 12 220 0 414 -3 431 -6z
m117 -53 c46 -28 101 -86 123 -129 37 -74 402 -934 398 -938 -2 -3 -197 10
-432 28 l-429 33 -78 215 c-43 118 -79 222 -80 231 -2 14 449 579 462 579 3 0
19 -9 36 -19z m-2081 -378 c7 -96 6 -103 -11 -103 -45 0 -333 -31 -373 -41
-60 -14 -100 -44 -122 -93 -28 -61 -24 -103 16 -200 9 -20 -8 -20 -221 0 l-61
6 -27 90 c-15 50 -26 92 -24 93 2 2 183 97 403 213 l400 211 6 -37 c4 -20 10
-83 14 -139z m-7470 2 c17 -9 44 -28 58 -43 14 -15 190 -310 391 -657 l366
-630 -82 -5 c-115 -8 -177 -46 -212 -132 -27 -63 -19 -131 53 -463 38 -176 68
-321 67 -323 -2 -1 -411 29 -910 68 -498 38 -929 70 -957 70 -28 0 -67 -7 -86
-17 -45 -21 -84 -81 -91 -138 -10 -94 -10 -95 463 -473 236 -189 431 -347 432
-350 2 -4 -214 -121 -478 -260 -471 -247 -482 -252 -502 -235 -12 10 -278 250
-592 534 -463 419 -575 525 -590 560 -25 54 -25 131 0 182 13 28 351 343 1247
1160 676 617 1248 1132 1270 1145 48 26 106 28 153 7z m2429 -27 c14 -6 32
-21 39 -32 27 -42 499 -937 496 -940 -2 -2 -137 -26 -299 -55 -162 -29 -302
-54 -310 -57 -14 -3 -21 61 -53 474 -21 262 -38 494 -37 516 0 30 7 45 34 72
37 37 82 45 130 22z m6433 -23 c47 -21 133 -96 133 -116 0 -7 -76 -105 -144
-186 -1 -1 -23 67 -49 151 -26 85 -50 162 -53 171 -6 15 -2 16 27 10 19 -4 57
-17 86 -30z m-107 -133 c69 -218 68 -208 22 -261 l-38 -44 -117 221 c-64 122
-117 224 -117 226 0 5 62 11 152 14 l47 2 51 -158z m-169 -101 l125 -239 -26
-32 -26 -31 -556 42 -555 43 -14 180 c-14 179 -14 181 6 184 33 5 868 90 895
91 23 0 37 -22 151 -238z m-3162 195 c32 -17 55 -48 65 -89 8 -34 -21 -101
-57 -136 l-24 -21 -209 15 c-320 24 -312 9 -69 136 118 61 222 109 238 109 15
0 41 -7 56 -14z m2071 -226 c7 -94 10 -173 7 -176 -3 -3 -109 3 -235 12 l-231
18 -25 57 c-31 68 -33 113 -6 157 31 50 84 68 250 85 80 8 163 15 186 16 l41
1 13 -170z m1595 -96 c39 -108 72 -200 74 -206 2 -6 -27 -8 -85 -4 -162 12
-146 2 -183 118 -26 84 -29 104 -19 119 33 44 134 168 138 168 3 1 37 -87 75
-195z m-4571 106 c131 -10 240 -20 242 -23 2 -2 -58 -36 -134 -75 -75 -40
-191 -100 -258 -135 l-121 -64 -79 66 c-60 51 -81 75 -88 103 -12 48 -1 85 36
120 37 35 64 35 402 8z m633 -48 c117 -10 215 -20 218 -23 5 -6 -529 -671
-543 -676 -4 -2 -127 93 -274 210 l-267 214 277 146 c319 168 259 155 589 129z
m533 -42 c80 -6 164 -13 187 -16 l42 -5 17 -75 c9 -41 14 -77 11 -80 -16 -17
-1035 -544 -1046 -542 -8 2 -18 10 -24 19 -8 13 47 86 274 367 l284 352 55 -5
c30 -3 120 -10 200 -15z m444 -36 l70 -6 -100 -54 c-54 -29 -103 -52 -109 -51
-5 2 -13 21 -17 43 -4 21 -10 49 -13 62 -6 23 -4 23 47 18 29 -3 84 -8 122
-12z m388 -30 c15 -4 14 -9 -8 -41 -15 -22 -24 -50 -24 -74 0 -20 70 -308 156
-639 85 -331 154 -603 152 -605 -2 -2 -122 -5 -268 -7 l-264 -3 -132 610 c-73
336 -133 615 -133 620 0 6 61 43 137 83 l137 73 115 -6 c63 -3 123 -8 132 -11z
m160 -131 c53 -93 64 -126 218 -656 90 -306 161 -559 159 -561 -2 -2 -51 -6
-109 -8 l-106 -5 -157 611 c-87 336 -158 623 -157 637 0 38 36 79 69 79 24 0
34 -11 83 -97z m632 71 c111 -9 202 -17 202 -17 5 -6 18 -227 14 -227 -3 0
-97 32 -208 72 l-204 73 -29 57 -29 58 26 0 c15 0 118 -7 228 -16z m-408 -65
c93 -33 173 -64 177 -68 5 -5 127 -262 273 -572 l264 -564 -90 -9 c-50 -5 -92
-7 -94 -5 -3 2 -153 260 -335 574 -209 358 -338 590 -348 625 -9 30 -18 61
-20 68 -3 6 -3 12 -1 12 3 0 81 -27 174 -61z m1222 2 c271 -21 495 -41 497
-43 3 -3 -350 -444 -384 -481 -4 -4 -22 13 -40 38 -18 25 -51 58 -74 74 -24
16 -154 69 -291 118 -136 48 -251 95 -256 103 -4 8 -11 63 -14 123 l-7 107 38
0 c21 0 260 -18 531 -39z m-2033 -641 c70 -327 130 -601 132 -607 4 -10 -12
-13 -62 -13 -60 0 -95 10 -332 97 l-264 98 -314 251 -314 251 507 266 c278
147 509 263 513 259 3 -4 63 -275 134 -602z m2682 586 c1 -1 68 -125 148 -276
l147 -275 83 -265 c72 -230 81 -267 68 -277 -8 -6 -51 -14 -96 -17 -150 -11
-887 -29 -894 -22 -4 3 4 121 17 261 19 203 21 264 13 302 l-11 48 121 150
c67 83 164 203 217 268 l95 117 45 -6 c25 -4 46 -7 47 -8z m319 -21 l90 -7
224 -619 c122 -341 221 -621 219 -623 -26 -23 -239 -153 -243 -148 -2 4 -25
74 -50 157 l-47 149 22 50 c15 36 19 60 15 89 -4 22 -53 128 -110 236 -99 186
-109 209 -185 456 -45 142 -81 263 -81 268 0 5 12 6 28 3 15 -3 68 -8 118 -11z
m-4566 -211 c149 -119 270 -219 270 -223 -1 -3 -27 -37 -58 -74 -47 -57 -72
-76 -147 -115 l-90 -47 -415 3 -415 2 -58 53 c-54 48 -61 59 -87 140 l-28 87
26 15 c233 126 710 374 720 374 7 1 134 -96 282 -215z m2810 130 c102 -37 188
-70 192 -73 4 -4 21 -177 38 -386 16 -209 32 -400 34 -425 l5 -45 -24 50 c-13
28 -118 251 -233 498 -116 246 -207 447 -204 447 4 0 90 -30 192 -66z m2355
35 c220 -17 403 -34 407 -37 4 -4 70 -155 148 -336 112 -263 138 -332 128
-342 -22 -20 -696 -454 -705 -454 -5 0 -98 249 -207 553 -110 303 -207 573
-217 600 l-19 47 33 0 c17 0 212 -14 432 -31z m965 -74 c250 -19 470 -39 489
-43 19 -4 39 -15 45 -25 9 -14 4 -23 -24 -50 -31 -30 -699 -470 -733 -483 -13
-4 -69 119 -243 534 l-43 102 26 0 c15 0 232 -16 483 -35z m-2553 -251 c37
-28 93 -100 93 -118 -1 -16 -510 -640 -526 -644 -18 -4 -19 5 -54 463 -17 220
-33 423 -36 451 l-6 52 248 -89 c137 -50 263 -101 281 -115z m-988 -312 c145
-249 262 -455 260 -456 -2 -2 -64 -5 -138 -7 l-134 -4 -138 470 c-76 259 -139
474 -139 480 0 15 13 -6 289 -483z m-3822 305 l46 -44 -110 -56 -110 -56 -42
80 c-24 44 -41 82 -40 83 4 3 170 32 197 35 7 0 34 -19 59 -42z m-256 -87 l47
-89 -105 -56 -104 -55 -259 0 -258 0 -7 81 c-5 58 -4 83 4 89 7 4 144 30 304
59 161 28 299 53 307 55 8 2 17 4 20 5 3 0 26 -40 51 -89z m493 -157 l15 -43
-179 0 -180 0 -20 41 c-12 22 -20 45 -18 51 2 6 53 36 113 67 l110 56 72 -65
c53 -47 76 -76 87 -107z m-1219 42 c4 -42 6 -78 4 -80 -7 -6 -884 -18 -878
-11 3 3 183 40 400 81 217 42 401 77 409 79 55 13 58 10 65 -69z m2848 -136
c138 -111 258 -208 266 -215 8 -7 -21 0 -65 16 -97 37 -127 38 -160 5 -20 -20
-25 -33 -22 -67 3 -41 8 -46 114 -134 l111 -91 -96 -7 c-53 -3 -154 -6 -226
-6 l-130 0 -64 153 c-76 182 -114 242 -189 298 -31 24 -60 46 -64 49 -4 3 11
28 33 55 29 35 67 64 127 97 48 26 93 48 100 48 7 0 126 -91 265 -201z m3067
123 c0 -20 -9 -146 -22 -280 -21 -228 -23 -243 -42 -247 -12 -2 -112 -6 -224
-9 -193 -4 -202 -4 -190 13 56 79 463 569 470 565 4 -3 8 -22 8 -42z m-5895
-233 c4 -66 6 -121 4 -123 -17 -12 -892 -466 -894 -464 -4 4 -130 427 -145
490 -16 62 0 132 41 181 l30 37 479 0 478 0 7 -121z m420 98 c-22 -13 -115
-62 -206 -110 l-166 -87 -7 77 c-3 42 -6 91 -6 110 l0 33 213 0 212 0 -40 -23z
m540 -218 c70 -132 125 -242 123 -245 -5 -5 -1000 -105 -1004 -101 -5 5 -26
306 -22 317 2 6 114 69 248 140 l245 129 142 1 141 0 127 -241z m321 66 c77
-245 78 -215 -12 -264 -127 -69 -116 -77 -261 194 -67 127 -123 233 -123 238
0 4 77 6 171 5 l171 -3 54 -170z m180 50 c77 -69 140 -129 141 -133 2 -4 -47
-32 -107 -63 l-110 -57 -36 117 c-20 64 -46 149 -59 189 l-23 72 28 0 c21 0
59 -29 166 -125z m584 94 c-30 -16 -132 -70 -226 -119 l-171 -90 -79 72 c-43
39 -103 93 -132 120 l-54 48 359 0 358 0 -55 -31z m-3314 -356 c120 -207 222
-382 227 -389 5 -9 -31 -32 -118 -79 l-125 -66 -176 12 c-162 12 -177 14 -184
33 -4 12 -39 170 -78 351 -76 351 -77 370 -36 433 40 61 87 81 190 82 l81 0
219 -377z m234 372 c0 -3 -10 -25 -21 -48 -39 -74 -30 -138 54 -419 l74 -248
-35 -20 c-19 -12 -36 -20 -37 -18 -7 7 -435 748 -435 752 0 4 90 6 200 6 110
0 200 -2 200 -5z m3248 -3 c9 -6 -37 -69 -159 -220 l-172 -211 -59 52 c-120
105 -143 128 -133 133 6 2 116 60 245 129 129 68 242 124 250 125 8 0 21 -4
28 -8z m148 -85 c19 -16 47 -47 62 -70 29 -43 158 -335 151 -341 -2 -3 -137
-8 -300 -12 l-296 -7 -32 24 c-17 13 -29 29 -27 36 3 7 82 107 177 223 l171
210 30 -18 c16 -9 45 -30 64 -45z m5780 -142 c65 -152 74 -197 53 -252 -13
-35 -55 -80 -93 -100 -26 -13 -665 -203 -684 -203 -5 0 -14 31 -21 70 -6 38
-20 92 -31 120 l-20 50 157 103 c87 56 248 161 358 234 110 72 204 130 209
129 4 -1 37 -69 72 -151z m-5065 -24 c122 -45 142 -56 238 -132 l106 -84 -138
-9 -138 -8 -121 98 c-143 116 -154 131 -132 162 8 12 23 22 34 22 10 0 78 -22
151 -49z m-3055 -108 c4 -49 8 -117 8 -153 l1 -64 -215 -22 c-230 -22 -276
-35 -318 -89 -49 -62 -53 -155 -12 -236 l22 -42 -94 7 c-51 3 -125 9 -163 12
l-70 6 -29 100 c-16 57 -25 103 -20 107 11 11 867 461 876 461 3 0 10 -39 14
-87z m1741 -22 l92 -83 -21 -29 c-21 -28 -26 -29 -97 -29 -67 0 -84 4 -146 35
-45 23 -91 38 -128 42 -50 5 -57 8 -57 28 0 18 21 33 117 83 95 49 121 58 133
49 8 -7 56 -50 107 -96z m5208 -170 c25 -84 45 -155 43 -157 -3 -2 -125 -82
-272 -178 -262 -170 -271 -175 -381 -206 l-113 -32 -196 156 c-183 145 -196
158 -196 188 0 34 30 341 33 344 1 1 220 9 487 17 267 9 496 20 510 25 14 6
28 7 31 3 4 -3 28 -75 54 -160z m-1125 107 c0 -29 -31 -323 -35 -326 -2 -2
-32 19 -68 47 -78 61 -149 94 -247 115 -40 8 -76 18 -81 23 -4 4 -19 34 -33
66 -21 47 -23 59 -11 63 8 3 110 9 227 13 117 4 221 9 231 9 9 1 17 -4 17 -10z
m-720 -103 l46 -80 -155 -37 c-86 -20 -159 -33 -162 -30 -4 4 -19 50 -34 102
-15 52 -30 100 -32 107 -6 16 32 20 172 19 l119 -1 46 -80z m-365 18 c9 -32
25 -85 35 -118 l18 -60 -30 -8 c-42 -11 -130 17 -173 55 -41 36 -57 62 -78
136 l-16 52 114 0 114 0 16 -57z m-266 -8 c16 -73 65 -143 125 -180 42 -25 62
-31 127 -34 l78 -3 17 -50 c9 -27 14 -51 12 -54 -3 -2 -208 71 -456 162 -370
137 -452 170 -452 185 0 20 17 21 396 27 l141 2 12 -55z m-661 8 c48 -18 77
-35 83 -48 13 -31 61 -266 56 -272 -8 -7 -426 330 -421 339 3 5 51 8 106 8 86
0 113 -4 176 -27z m-2582 -241 c74 -139 134 -258 134 -265 0 -7 -12 -25 -27
-42 l-26 -30 -604 47 c-333 26 -607 49 -611 52 -8 9 -36 385 -29 392 8 9 930
102 985 100 l44 -1 134 -253z m2477 57 c138 -111 255 -205 259 -208 8 -7 72
-291 66 -296 -2 -1 -195 153 -430 344 -361 293 -424 347 -405 353 12 3 75 6
140 7 l118 1 252 -201z m-128 -191 c294 -238 474 -390 474 -401 1 -15 -5 -17
-46 -12 -27 3 -282 24 -567 45 -286 22 -521 41 -522 43 -5 5 -294 682 -294
689 0 7 67 10 373 16 l108 2 474 -382z m-885 92 c62 -146 127 -299 145 -340
l32 -75 -72 5 c-83 6 -23 -41 -493 385 l-309 280 61 3 c184 9 512 17 517 12 3
-3 57 -124 119 -270z m-382 -84 c188 -171 340 -311 339 -312 -6 -7 -730 55
-736 62 -5 5 -47 118 -95 252 l-87 242 36 45 c35 43 39 44 98 47 43 2 68 -2
83 -12 11 -8 174 -154 362 -324z m-635 241 c-4 -7 -42 -55 -83 -106 l-75 -93
-42 134 c-24 73 -43 136 -43 140 0 4 39 9 88 10 l87 3 38 -38 c25 -24 35 -42
30 -50z m5647 -13 c34 -134 40 -125 -106 -168 -69 -21 -127 -36 -128 -34 -4 6
-41 133 -41 141 0 4 54 43 120 87 93 61 122 75 128 65 4 -8 17 -49 27 -91z
m-5886 -63 l49 -159 -44 -56 c-24 -30 -44 -54 -45 -53 -2 2 -224 420 -224 421
0 1 49 2 108 3 l108 2 48 -158z m3223 -112 c259 -96 255 -75 57 -319 -88 -108
-153 -179 -160 -176 -7 3 -134 102 -282 220 l-269 216 -17 82 c-9 46 -25 119
-35 164 l-18 80 266 -98 c146 -54 353 -130 458 -169z m-4625 34 c9 -109 15
-199 14 -199 0 -1 -102 7 -226 17 -124 10 -240 18 -258 18 -30 1 -35 6 -62 64
-37 76 -39 131 -7 177 41 62 71 72 296 96 113 12 211 22 217 23 7 1 16 -70 26
-196z m5454 -82 l121 -260 -64 25 c-36 13 -67 24 -69 24 -2 0 -34 53 -72 118
l-70 117 -7 118 -7 117 23 0 c22 0 37 -27 145 -259z m99 205 c28 -13 83 -49
123 -80 56 -44 72 -63 72 -83 0 -30 -31 -347 -34 -350 -1 -2 -21 4 -44 13 -40
16 -42 20 -133 213 -51 108 -107 228 -125 267 l-33 72 62 -14 c34 -8 85 -25
112 -38z m-349 -94 c57 -99 62 -113 67 -184 l5 -77 -81 30 c-45 17 -120 45
-167 61 -47 17 -87 32 -89 34 -4 4 191 244 198 244 3 0 33 -49 67 -108z m-148
80 c-7 -10 -46 -59 -87 -109 -90 -112 -104 -113 -138 -8 -13 38 -20 71 -17 74
6 7 210 58 237 60 16 1 16 -1 5 -17z m-3303 -225 c43 -120 76 -219 74 -222 -2
-2 -49 0 -104 5 -55 5 -112 9 -127 10 -26 0 -29 6 -63 115 -35 113 -36 117
-18 139 82 107 149 184 154 178 3 -4 41 -105 84 -225z m5256 42 c-7 -7 -432
-131 -436 -127 -1 2 88 62 199 133 l201 131 21 -66 c12 -36 18 -68 15 -71z
m-9654 41 c499 -39 908 -72 910 -73 1 -2 11 -41 21 -88 l19 -85 -570 -299
c-313 -165 -573 -301 -576 -303 -13 -5 -881 699 -896 727 -30 58 -13 128 41
170 20 16 41 21 86 21 32 0 466 -32 965 -70z m1611 -30 l33 -60 -73 6 c-40 4
-99 9 -131 13 l-58 6 88 47 c48 26 93 48 98 48 6 0 25 -27 43 -60z m8352 3
c-1 -72 -24 -191 -62 -323 -23 -80 -44 -148 -47 -152 -6 -7 -133 390 -135 421
-1 9 36 25 109 46 137 41 135 41 135 8z m-1342 -136 c90 -71 161 -131 159
-133 -8 -8 -313 -94 -332 -94 -47 0 -49 8 -36 152 17 194 21 219 35 211 6 -4
84 -65 174 -136z m-7410 58 c-7 -7 -61 -37 -119 -67 l-107 -55 -11 56 c-6 31
-14 65 -17 76 -5 20 -2 20 131 11 107 -7 133 -12 123 -21z m8542 -234 l79
-251 -75 -262 c-42 -145 -84 -276 -94 -293 -33 -52 -103 -113 -162 -140 -54
-25 -77 -28 -360 -45 -167 -11 -331 -20 -364 -20 l-61 0 -181 312 -181 312
152 99 c83 55 157 101 162 103 6 3 127 -38 269 -91 141 -52 265 -95 274 -95
25 0 52 31 52 61 0 24 -23 46 -169 161 l-168 134 71 47 c39 25 87 52 106 59
67 23 565 166 569 163 1 -2 38 -116 81 -254z m-8254 223 l111 -7 -29 -26 c-37
-33 -50 -88 -37 -155 5 -28 83 -334 173 -681 90 -346 163 -631 162 -632 -3 -4
-581 -21 -585 -17 -4 4 -285 1296 -292 1343 -4 22 11 32 151 107 136 73 160
83 195 79 22 -3 90 -7 151 -11z m6242 -58 c96 -36 176 -67 179 -70 3 -3 10
-70 17 -151 l11 -146 -67 -19 c-38 -11 -100 -29 -139 -41 -39 -11 -73 -18 -76
-15 -3 2 -36 109 -74 237 -68 232 -73 269 -36 269 7 0 90 -29 185 -64z m-835
-170 c130 -104 237 -192 237 -195 0 -14 -113 -146 -122 -143 -6 1 -81 60 -168
130 l-157 127 -27 125 c-14 69 -29 136 -33 149 -8 31 -27 44 270 -193z m-4897
188 l101 -7 27 -55 c15 -30 26 -56 24 -57 -4 -4 -361 124 -368 132 -3 3 22 3
55 0 33 -4 105 -10 161 -13z m-263 -107 c57 -99 65 -122 241 -722 l182 -620
-119 -8 c-66 -5 -121 -6 -124 -3 -12 12 -345 1317 -347 1358 -1 58 30 98 78
98 29 0 35 -8 89 -103z m689 75 c119 -10 219 -20 223 -23 8 -8 28 -239 21
-246 -3 -3 -106 30 -228 74 l-223 79 -32 60 c-18 32 -33 62 -33 67 0 9 19 9
272 -11z m-430 -77 l186 -67 292 -624 c161 -344 291 -626 289 -628 -2 -2 -49
-7 -104 -11 l-100 -6 -364 629 c-297 513 -369 644 -387 706 -15 54 -18 76 -9
73 7 -3 96 -35 197 -72z m5558 -153 c34 -118 60 -215 58 -216 -1 -2 -49 -17
-106 -33 l-103 -30 -99 79 c-55 44 -100 83 -100 87 0 16 273 342 280 334 4 -4
35 -104 70 -221z m-4280 163 c316 -25 583 -45 592 -45 15 0 -170 -236 -428
-548 -1 -2 -9 9 -18 25 -19 38 -92 110 -130 130 -17 9 -152 60 -301 113 l-270
98 -6 58 c-10 94 -19 214 -16 214 2 0 261 -20 577 -45z m4747 -26 c19 -7 137
-188 129 -197 -2 -1 -33 -11 -69 -21 -36 -11 -74 -22 -85 -25 -18 -6 -20 0
-26 106 -4 62 -10 124 -13 137 -6 25 -2 25 64 0z m-6926 -681 l146 -673 -77
-3 c-75 -3 -81 -1 -364 104 l-289 106 -338 271 c-187 149 -339 274 -339 277 0
6 1097 588 1111 589 3 1 71 -302 150 -671z m3103 339 l166 -314 85 -274 c47
-151 87 -280 90 -287 12 -33 -52 -40 -583 -57 -288 -9 -525 -15 -527 -13 -1 2
8 111 21 243 26 262 29 353 15 402 -9 32 -4 39 226 323 l236 290 53 0 52 0
166 -313z m-15 271 c83 -266 101 -326 101 -334 0 -9 -30 45 -138 249 l-63 117
45 0 c41 0 45 -2 55 -32z m272 3 l31 -6 209 -580 c115 -319 225 -624 244 -678
l35 -98 -130 -84 c-71 -47 -133 -85 -137 -85 -5 0 -32 78 -61 173 l-54 173 22
42 c40 77 29 117 -100 360 -110 208 -114 219 -201 495 -49 155 -89 288 -89
295 0 11 20 12 100 6 55 -3 114 -9 131 -13z m4379 9 c18 -11 24 -5 -85 -75
l-90 -58 -68 24 c-38 13 -70 26 -72 29 -3 5 267 88 290 89 6 0 17 -3 25 -9z
m-6256 -134 c54 -19 99 -36 101 -38 3 -5 75 -931 72 -934 -1 -1 -76 156 -166
349 -91 194 -206 441 -257 549 l-92 196 122 -43 c66 -24 165 -59 220 -79z
m2381 88 l349 -26 144 -132 144 -131 104 -244 c85 -198 102 -247 92 -257 -7
-7 -186 -125 -398 -262 l-385 -251 -16 47 c-9 26 -116 323 -238 660 -121 338
-221 618 -221 623 0 5 17 7 38 4 20 -3 194 -17 387 -31z m4091 -125 c147 -117
187 -159 153 -159 -16 0 -489 174 -489 180 0 5 160 110 168 110 2 0 78 -59
168 -131z m-2926 35 c261 -19 491 -40 511 -45 50 -13 59 -53 21 -90 -15 -15
-154 -108 -309 -209 l-283 -182 -60 33 c-72 41 -376 312 -389 348 -5 14 -25
64 -45 110 l-36 84 57 -7 c32 -3 272 -22 533 -42z m2402 9 c40 -14 76 -29 80
-32 6 -5 -260 -182 -278 -185 -14 -2 -113 179 -101 183 45 16 195 60 209 60 9
1 50 -11 90 -26z m-1544 -254 c2 -5 -18 -35 -45 -68 -40 -49 -56 -61 -100 -73
-29 -9 -53 -14 -53 -12 0 2 -13 65 -30 140 -16 75 -27 147 -24 160 4 15 0 34
-10 49 -9 13 -16 27 -16 30 0 8 274 -215 278 -226z m-4628 -604 l157 -270
-149 -8 c-83 -5 -153 -5 -157 0 -4 4 -77 244 -161 533 -84 289 -155 532 -158
540 -4 14 114 -187 468 -795z m5875 717 c28 -48 51 -92 53 -98 2 -6 -60 -51
-136 -101 l-139 -90 -12 159 c-7 88 -10 162 -7 165 8 8 150 51 171 52 15 1 33
-21 70 -87z m-5243 -13 c139 -49 272 -101 294 -114 46 -27 89 -73 111 -121
l15 -31 -283 -351 c-156 -193 -289 -351 -296 -351 -6 -1 -14 3 -17 8 -6 8 -86
973 -86 1026 0 14 2 25 5 25 2 0 118 -41 257 -91z m4276 -15 c45 -36 82 -69
82 -73 0 -4 -28 -14 -62 -24 -35 -9 -84 -23 -110 -31 -46 -14 -47 -14 -86 16
l-40 31 60 73 c34 41 64 74 67 74 3 0 43 -30 89 -66z m691 -89 c7 -77 13 -152
16 -167 4 -23 -4 -32 -76 -79 l-80 -52 -26 19 c-21 16 -34 49 -73 181 l-47
161 136 40 c75 22 137 39 138 38 0 0 6 -64 12 -141z m-1233 -39 c14 -65 24
-120 21 -122 -2 -3 -104 -34 -226 -69 -191 -56 -233 -65 -301 -65 -44 0 -80 3
-80 8 0 7 552 370 558 367 1 -1 14 -55 28 -119z m946 -38 c20 -68 34 -125 33
-126 -5 -5 -245 189 -245 198 0 8 124 47 156 49 19 1 25 -13 56 -121z m2302
-255 c81 -264 116 -392 116 -426 0 -82 -45 -158 -115 -194 -57 -30 -889 -303
-898 -294 -11 11 -338 574 -335 576 2 1 163 12 358 24 350 21 356 22 417 51
80 37 153 105 185 172 14 29 51 146 83 261 33 114 62 207 65 207 4 0 59 -170
124 -377z m-4147 178 c56 -50 125 -105 153 -120 l50 -28 -85 -56 c-46 -32 -89
-57 -93 -57 -5 0 -47 91 -95 202 -75 174 -83 198 -59 177 15 -14 73 -67 129
-118z m1734 8 c90 -72 167 -136 170 -142 25 -45 21 -53 -51 -101 -41 -27 -76
-44 -83 -39 -29 17 -417 335 -417 341 0 4 48 21 108 39 59 17 108 32 108 32 1
1 75 -58 165 -130z m934 -186 c96 -164 173 -299 172 -300 -1 -1 -136 -10 -299
-19 -230 -14 -304 -15 -334 -6 -59 17 -130 66 -164 113 -32 45 -76 171 -66
188 4 6 22 0 43 -15 29 -19 47 -24 82 -22 59 4 84 37 91 120 l5 60 144 94 c80
52 147 92 149 89 2 -2 82 -138 177 -302z m-1142 47 c118 -96 215 -176 214
-176 -9 -7 -563 -367 -577 -374 -33 -18 -65 67 -120 320 l-51 232 41 54 c23
29 47 58 55 64 19 16 198 68 211 61 6 -3 108 -85 227 -181z m-7259 -130 c162
-129 294 -235 292 -237 -1 -1 -38 11 -82 28 -127 49 -171 42 -201 -28 -22 -53
-2 -82 135 -193 l124 -100 -74 0 c-40 0 -271 -7 -513 -15 -242 -8 -485 -15
-540 -15 l-100 1 -151 137 c-84 75 -153 141 -154 147 -2 9 949 516 962 512 4
-1 139 -108 302 -237z m3346 123 c-1 -92 -43 -540 -52 -549 -7 -6 -480 -25
-486 -20 -5 6 519 646 529 646 5 0 9 -35 9 -77z m3395 -253 c34 -154 55 -230
76 -269 16 -30 28 -55 26 -57 -1 -1 -166 -108 -366 -238 -407 -264 -405 -264
-467 -202 -47 47 -46 88 4 153 73 97 675 833 678 830 2 -1 24 -99 49 -217z
m945 103 c32 -131 139 -235 263 -258 21 -4 175 1 343 10 167 10 306 16 308 14
2 -2 81 -137 175 -299 121 -207 167 -296 159 -301 -33 -18 -142 -40 -229 -46
l-97 -6 -530 429 c-292 236 -531 431 -531 434 0 8 113 77 120 74 4 -2 12 -25
19 -51z m-1877 -215 c72 -168 82 -223 54 -291 -22 -51 -88 -104 -154 -123 -32
-9 -202 -58 -377 -110 -176 -51 -323 -91 -327 -89 -3 3 -9 29 -13 60 -3 30
-17 90 -31 132 -18 59 -21 79 -12 85 7 4 185 119 397 257 212 138 388 247 391
243 3 -4 36 -78 72 -164z m2210 -244 c276 -224 507 -411 512 -416 16 -15 -27
-6 -765 168 -719 169 -767 183 -826 245 -24 25 -27 32 -14 39 8 5 139 90 290
189 151 99 281 180 288 180 7 1 239 -182 515 -405z m-7770 220 c151 -55 157
-58 273 -151 66 -52 121 -97 123 -99 2 -2 -70 -4 -161 -4 l-166 0 -118 96
c-119 96 -164 138 -164 153 0 12 40 61 50 61 5 0 78 -25 163 -56z m-1399 -174
l138 -125 -173 -6 c-295 -11 -607 -14 -615 -6 -16 16 37 50 256 166 182 96
228 117 240 107 9 -6 78 -67 154 -136z m5675 -155 c30 -97 52 -177 50 -179 -2
-1 -134 -88 -294 -191 -286 -186 -292 -189 -415 -227 -94 -29 -129 -36 -142
-28 -27 16 -423 332 -426 340 -3 9 35 401 40 406 2 2 235 10 518 19 283 9 531
20 550 24 19 5 42 9 50 10 11 1 30 -46 69 -174z m-1233 88 c-3 -21 -10 -96
-16 -168 -17 -197 -8 -186 -93 -119 -89 71 -169 108 -280 131 l-86 17 -31 70
c-20 45 -27 73 -21 79 8 8 124 14 479 25 l54 2 -6 -37z m-606 -1 c0 -9 -23
-46 -51 -80 l-51 -63 -43 73 c-42 71 -42 73 -21 80 11 3 54 6 94 7 62 1 72 -1
72 -17z m-183 -84 l52 -92 -172 -41 c-95 -23 -175 -39 -179 -36 -3 3 -20 54
-37 113 -17 59 -34 114 -37 122 -7 17 28 21 206 24 l115 2 52 -92z m-417 79
c0 -1 18 -62 39 -135 l39 -132 -62 0 c-117 0 -211 70 -243 180 -9 30 -18 60
-20 67 -3 7 8 13 29 16 39 5 218 8 218 4z m-280 -49 c6 -24 14 -52 17 -63 10
-40 64 -113 101 -138 61 -43 107 -57 181 -57 l70 0 17 -57 c9 -32 18 -61 21
-66 2 -4 -17 1 -44 11 -26 11 -254 95 -505 187 -377 138 -458 172 -458 187 0
10 1 19 3 19 4 2 367 15 479 17 l107 2 11 -42z m-727 -10 c48 -17 92 -38 96
-47 11 -21 74 -312 68 -317 -2 -2 -112 82 -245 188 l-241 193 92 6 c51 3 103
6 117 7 13 1 64 -12 113 -30z m-103 -208 l288 -230 17 -78 c9 -42 25 -115 35
-162 10 -46 18 -86 16 -87 -1 -1 -217 172 -480 385 l-477 387 118 5 c65 4 135
7 157 8 36 2 55 -11 326 -228z m-142 -209 l517 -419 50 -234 c28 -128 50 -237
50 -243 0 -5 -110 -42 -245 -82 -211 -62 -256 -72 -325 -72 -93 -1 -190 23
-258 62 -24 15 -379 329 -788 699 l-743 673 60 3 c160 8 1141 39 1152 36 7 -2
245 -192 530 -423z m4117 199 c8 -41 11 -78 7 -81 -13 -11 -272 -82 -278 -76
-3 3 -16 40 -29 82 l-24 77 137 89 137 89 18 -52 c10 -29 25 -87 32 -128z
m-3213 -25 l488 -179 11 -34 c13 -40 28 -17 -170 -260 l-154 -189 -306 244
-306 244 -37 167 c-42 189 -43 196 -25 190 6 -2 231 -85 499 -183z m1190 -158
c71 -153 128 -280 126 -282 -1 -1 -37 10 -78 26 l-75 29 -70 123 c-74 129 -74
128 -89 310 l-7 78 31 -3 c31 -3 35 -9 162 -281z m28 256 c78 -21 124 -47 217
-121 l82 -65 -5 -41 c-7 -59 -34 -346 -34 -361 0 -10 -11 -9 -45 4 -25 9 -49
21 -54 27 -10 10 -271 568 -271 578 0 7 28 2 110 -21z m-305 -129 c64 -111 67
-120 75 -203 4 -47 7 -87 6 -88 -3 -4 -365 133 -368 140 -3 8 203 267 213 267
4 0 37 -52 74 -116z m-151 94 c-14 -22 -175 -217 -184 -223 -5 -3 -20 -3 -32
0 -19 5 -28 20 -47 86 -12 45 -21 82 -19 83 4 4 261 64 276 65 8 1 10 -4 6
-11z m2134 -213 c-7 -7 -490 -147 -493 -143 -2 2 99 69 223 150 l227 147 24
-75 c13 -41 21 -77 19 -79z m4484 -185 c159 -275 161 -280 154 -287 -7 -7 -17
0 -342 264 l-271 220 96 11 c53 6 121 20 151 31 41 14 58 16 66 7 6 -6 72
-117 146 -246z m-4155 136 c-4 -71 -18 -139 -58 -280 -29 -102 -55 -186 -58
-186 -9 0 -155 479 -149 485 8 8 229 73 252 74 18 1 19 -5 13 -93z m-1409
-126 l131 -105 -182 -53 c-160 -46 -186 -52 -218 -43 l-36 11 8 54 c4 29 13
119 20 199 l12 146 67 -52 c36 -29 125 -99 198 -157z m1110 98 c5 -18 44 -144
86 -279 l77 -247 -81 -283 c-45 -156 -92 -302 -105 -325 -48 -82 -165 -166
-252 -180 -68 -10 -778 -51 -785 -45 -7 7 -388 659 -395 677 -4 12 328 234
350 234 7 0 123 -41 257 -90 352 -130 328 -123 356 -106 31 21 39 52 21 80 -9
13 -92 83 -186 157 -94 74 -170 137 -171 140 0 4 37 31 82 60 77 51 99 59 392
146 171 50 319 92 328 92 11 1 20 -10 26 -31z m-2070 -88 c78 -29 142 -58 143
-64 0 -6 6 -78 13 -161 7 -82 10 -153 7 -156 -10 -11 -301 -92 -308 -86 -6 7
-153 504 -153 520 0 6 7 18 16 28 15 17 19 16 77 -6 34 -12 126 -46 205 -75z
m-990 -152 c152 -121 279 -222 281 -224 2 -2 -28 -41 -67 -88 l-70 -84 -178
144 c-98 80 -179 146 -181 148 -2 1 -17 65 -33 142 -17 76 -32 149 -35 162 -3
12 -3 22 0 22 3 0 130 -100 283 -222z m737 -101 c37 -126 65 -230 63 -232 -5
-5 -215 -65 -227 -65 -13 0 -226 169 -226 179 0 4 70 93 155 198 132 163 156
188 161 170 4 -12 37 -125 74 -250z m488 167 c44 -15 50 -21 107 -121 33 -58
59 -107 58 -108 -3 -3 -185 -55 -191 -55 -2 0 -7 51 -11 113 -4 61 -10 129
-13 150 -3 20 -4 37 -1 37 2 0 25 -7 51 -16z m205 -76 c30 -11 57 -29 63 -41
6 -12 21 -32 32 -44 16 -18 17 -23 6 -27 -71 -23 -92 -27 -99 -20 -4 5 -29 44
-54 87 -51 87 -54 84 52 45z m710 -1 c9 -10 -11 -28 -92 -80 l-102 -67 -88 32
-88 32 159 47 c174 51 196 55 211 36z m246 -192 c91 -71 167 -135 170 -142 16
-38 -30 -27 -291 69 l-272 100 97 64 c82 53 100 61 114 51 9 -7 91 -70 182
-142z m-570 51 l89 -32 -164 -107 -163 -106 -59 101 c-33 55 -55 104 -51 108
13 12 204 68 234 68 14 1 65 -14 114 -32z m-1862 -142 c79 -63 147 -121 152
-128 6 -9 -7 -33 -44 -77 -45 -54 -61 -67 -108 -82 -31 -9 -59 -14 -62 -10 -6
7 -91 387 -90 406 0 4 2 7 5 7 3 0 69 -52 147 -116z m1527 -16 c35 -62 60
-114 55 -115 -5 -2 -74 -46 -154 -98 -138 -91 -145 -94 -152 -73 -8 29 -31
329 -25 335 4 3 195 61 207 62 3 0 34 -50 69 -111z m-1063 -24 c52 -43 91 -80
87 -84 -4 -4 -59 -21 -122 -39 -123 -36 -135 -35 -182 15 l-22 23 64 80 c35
44 68 80 72 81 4 0 51 -34 103 -76z m744 54 c0 -2 7 -79 15 -173 8 -93 15
-175 15 -182 0 -11 -162 -123 -178 -123 -5 0 -20 12 -34 28 -19 20 -39 73 -75
198 l-50 171 136 41 c121 36 171 47 171 40z m2350 -983 c-1 -85 -57 -178 -129
-214 -50 -25 -979 -337 -984 -331 -3 3 -89 149 -191 325 l-186 320 283 17
c479 28 507 31 582 66 77 37 161 116 193 184 17 34 160 507 162 538 1 3 61
-188 135 -425 98 -313 135 -444 135 -480z m-2652 743 c22 -79 40 -143 39 -144
-1 -1 -67 50 -146 114 -80 63 -141 117 -135 119 74 24 172 52 185 52 12 1 26
-33 57 -141z m-114 -77 c96 -77 176 -144 179 -148 2 -4 7 -20 11 -35 6 -25 0
-31 -70 -79 -56 -38 -81 -49 -93 -43 -31 16 -473 378 -464 381 89 30 241 71
250 68 7 -2 91 -67 187 -144z m1013 -193 c106 -183 191 -333 190 -335 -2 -1
-146 -11 -321 -22 -280 -17 -323 -18 -372 -5 -125 32 -205 118 -248 266 -9 31
-16 59 -16 62 0 12 26 5 74 -19 56 -28 74 -30 111 -13 37 17 55 58 55 126 l0
60 163 106 c89 58 164 106 167 106 3 0 91 -150 197 -332z m-1258 52 c190 -153
238 -197 229 -206 -7 -7 -152 -103 -322 -213 -220 -143 -313 -198 -321 -191
-30 25 -67 143 -115 367 l-53 243 56 68 55 68 103 31 c57 18 109 31 116 30 7
-1 120 -90 252 -197z m-498 -542 c7 -18 23 -49 35 -68 l21 -36 -299 -194
c-512 -333 -507 -330 -549 -330 -79 0 -136 90 -101 160 9 19 188 245 397 503
l380 467 51 -235 c28 -129 57 -249 65 -267z m1004 279 c31 -67 92 -124 171
-164 90 -44 90 -44 513 -18 241 15 285 16 292 4 5 -8 91 -156 192 -329 139
-237 181 -317 171 -323 -32 -19 -175 -48 -263 -53 l-96 -6 -570 462 c-313 254
-576 467 -584 475 -11 11 -2 20 55 59 l69 46 16 -58 c9 -32 24 -75 34 -95z
m345 -426 c308 -250 560 -455 560 -457 0 -14 -1605 367 -1663 395 -25 12 -65
39 -88 59 l-42 38 324 211 c178 116 330 211 336 210 7 -1 265 -206 573 -456z
m1180 -693 c168 -290 194 -338 186 -346 -8 -8 -30 9 -375 287 l-304 246 64 8
c35 4 107 18 159 31 52 13 102 24 110 24 10 1 67 -89 160 -250z"/>
</g>
</svg>
